<mxfile host="65bd71144e">
    <diagram id="wKvwQrx3vTo39lEKzDns" name="ページ1">
        <mxGraphModel dx="782" dy="317" grid="1" gridSize="10" guides="1" tooltips="1" connect="1" arrows="1" fold="1" page="1" pageScale="1" pageWidth="2336" pageHeight="1654" math="0" shadow="0">
            <root>
                <mxCell id="0"/>
                <mxCell id="1" parent="0"/>
                <mxCell id="2" value="管理者" style="shape=umlActor;verticalLabelPosition=bottom;verticalAlign=top;html=1;outlineConnect=0;" vertex="1" parent="1">
                    <mxGeometry x="120" y="160" width="30" height="60" as="geometry"/>
                </mxCell>
                <mxCell id="3" value="ログイン" style="ellipse;whiteSpace=wrap;html=1;" vertex="1" parent="1">
                    <mxGeometry x="200" y="80" width="140" height="70" as="geometry"/>
                </mxCell>
                <mxCell id="8" value="従業員" style="shape=umlActor;html=1;verticalLabelPosition=bottom;verticalAlign=top;align=center;" vertex="1" parent="1">
                    <mxGeometry x="530" y="85" width="30" height="60" as="geometry"/>
                </mxCell>
                <mxCell id="9" value="日次勤怠一覧の確認" style="ellipse;whiteSpace=wrap;html=1;" vertex="1" parent="1">
                    <mxGeometry x="200" y="160" width="140" height="70" as="geometry"/>
                </mxCell>
                <mxCell id="10" value="勤怠詳細の確認・修正" style="ellipse;whiteSpace=wrap;html=1;" vertex="1" parent="1">
                    <mxGeometry x="200" y="240" width="140" height="70" as="geometry"/>
                </mxCell>
                <mxCell id="12" value="従業員一覧の確認" style="ellipse;whiteSpace=wrap;html=1;" vertex="1" parent="1">
                    <mxGeometry x="200" y="320" width="140" height="70" as="geometry"/>
                </mxCell>
                <mxCell id="13" value="&lt;font&gt;月次勤怠一覧&lt;/font&gt;&lt;div&gt;&lt;font&gt;（&lt;span style=&quot;background-color: transparent;&quot;&gt;従業員別）の確認&lt;/span&gt;&lt;/font&gt;&lt;/div&gt;" style="ellipse;whiteSpace=wrap;html=1;" vertex="1" parent="1">
                    <mxGeometry x="200" y="400" width="140" height="70" as="geometry"/>
                </mxCell>
                <mxCell id="14" value="CSV出力&lt;div&gt;（勤怠一覧の月次出力）&lt;/div&gt;" style="ellipse;whiteSpace=wrap;html=1;" vertex="1" parent="1">
                    <mxGeometry x="200" y="480" width="140" height="70" as="geometry"/>
                </mxCell>
                <mxCell id="15" value="修正申請一覧の確認" style="ellipse;whiteSpace=wrap;html=1;" vertex="1" parent="1">
                    <mxGeometry x="200" y="560" width="140" height="70" as="geometry"/>
                </mxCell>
                <mxCell id="16" value="Use Case" style="ellipse;whiteSpace=wrap;html=1;" vertex="1" parent="1">
                    <mxGeometry x="200" y="640" width="140" height="70" as="geometry"/>
                </mxCell>
            </root>
        </mxGraphModel>
    </diagram>
</mxfile>